<svg xmlns="http://www.w3.org/2000/svg" width="12" height="13" viewBox="0 0 12 13" fill="none">
    <path d="M6 9.16667C5.26667 9.16667 4.63889 8.90556 4.11667 8.38333C3.59444 7.86111 3.33333 7.23333 3.33333 6.5C3.33333 5.76667 3.59444 5.13889 4.11667 4.61667C4.63889 4.09444 5.26667 3.83333 6 3.83333C6.73333 3.83333 7.36111 4.09444 7.88333 4.61667C8.40556 5.13889 8.66667 5.76667 8.66667 6.5C8.66667 7.23333 8.40556 7.86111 7.88333 8.38333C7.36111 8.90556 6.73333 9.16667 6 9.16667ZM6 7.83333C6.36667 7.83333 6.68067 7.70267 6.942 7.44133C7.20289 7.18044 7.33333 6.86667 7.33333 6.5C7.33333 6.13333 7.20289 5.81933 6.942 5.558C6.68067 5.29711 6.36667 5.16667 6 5.16667C5.63333 5.16667 5.31956 5.29711 5.05867 5.558C4.79733 5.81933 4.66667 6.13333 4.66667 6.5C4.66667 6.86667 4.79733 7.18044 5.05867 7.44133C5.31956 7.70267 5.63333 7.83333 6 7.83333ZM0.666667 4.5C0.477778 4.5 0.319556 4.436 0.192 4.308C0.0640001 4.18044 0 4.02222 0 3.83333V1.83333C0 1.46667 0.130444 1.15267 0.391333 0.891333C0.652667 0.630444 0.966667 0.5 1.33333 0.5H3.33333C3.52222 0.5 3.68067 0.563778 3.80867 0.691333C3.93622 0.819333 4 0.977778 4 1.16667C4 1.35556 3.93622 1.51378 3.80867 1.64133C3.68067 1.76933 3.52222 1.83333 3.33333 1.83333H1.33333V3.83333C1.33333 4.02222 1.26956 4.18044 1.142 4.308C1.014 4.436 0.855556 4.5 0.666667 4.5ZM1.33333 12.5C0.966667 12.5 0.652667 12.3696 0.391333 12.1087C0.130444 11.8473 0 11.5333 0 11.1667V9.16667C0 8.97778 0.0640001 8.81933 0.192 8.69133C0.319556 8.56378 0.477778 8.5 0.666667 8.5C0.855556 8.5 1.014 8.56378 1.142 8.69133C1.26956 8.81933 1.33333 8.97778 1.33333 9.16667V11.1667H3.33333C3.52222 11.1667 3.68067 11.2307 3.80867 11.3587C3.93622 11.4862 4 11.6444 4 11.8333C4 12.0222 3.93622 12.1804 3.80867 12.308C3.68067 12.436 3.52222 12.5 3.33333 12.5H1.33333ZM8.66667 12.5C8.47778 12.5 8.31956 12.436 8.192 12.308C8.064 12.1804 8 12.0222 8 11.8333C8 11.6444 8.064 11.4862 8.192 11.3587C8.31956 11.2307 8.47778 11.1667 8.66667 11.1667H10.6667V9.16667C10.6667 8.97778 10.7307 8.81933 10.8587 8.69133C10.9862 8.56378 11.1444 8.5 11.3333 8.5C11.5222 8.5 11.6804 8.56378 11.808 8.69133C11.936 8.81933 12 8.97778 12 9.16667V11.1667C12 11.5333 11.8696 11.8473 11.6087 12.1087C11.3473 12.3696 11.0333 12.5 10.6667 12.5H8.66667ZM11.3333 4.5C11.1444 4.5 10.9862 4.436 10.8587 4.308C10.7307 4.18044 10.6667 4.02222 10.6667 3.83333V1.83333H8.66667C8.47778 1.83333 8.31956 1.76933 8.192 1.64133C8.064 1.51378 8 1.35556 8 1.16667C8 0.977778 8.064 0.819333 8.192 0.691333C8.31956 0.563778 8.47778 0.5 8.66667 0.5H10.6667C11.0333 0.5 11.3473 0.630444 11.6087 0.891333C11.8696 1.15267 12 1.46667 12 1.83333V3.83333C12 4.02222 11.936 4.18044 11.808 4.308C11.6804 4.436 11.5222 4.5 11.3333 4.5Z" fill="#2B2B2B"/>
</svg>