<svg xmlns="http://www.w3.org/2000/svg" width="13" height="12" viewBox="0 0 13 12" fill="none">
    <path fill-rule="evenodd" clip-rule="evenodd" d="M0.960632 6C0.960632 2.8934 3.47903 0.375 6.58563 0.375C9.69223 0.375 12.2106 2.8934 12.2106 6C12.2106 9.1066 9.69223 11.625 6.58563 11.625C3.47903 11.625 0.960632 9.1066 0.960632 6ZM7.21063 10.3307V9C7.21063 8.65482 6.93081 8.375 6.58563 8.375C6.24045 8.375 5.96063 8.65482 5.96063 9V10.3307C4.04458 10.0566 2.52901 8.54106 2.25494 6.625H3.58563C3.93081 6.625 4.21063 6.34518 4.21063 6C4.21063 5.65482 3.93081 5.375 3.58563 5.375H2.25494C2.52901 3.45894 4.04458 1.94338 5.96063 1.66931V3C5.96063 3.34518 6.24045 3.625 6.58563 3.625C6.93081 3.625 7.21063 3.34518 7.21063 3V1.66931C9.12669 1.94338 10.6423 3.45894 10.9163 5.375H9.58563C9.24045 5.375 8.96063 5.65482 8.96063 6C8.96063 6.34518 9.24045 6.625 9.58563 6.625H10.9163C10.6423 8.54106 9.12669 10.0566 7.21063 10.3307Z" fill="white" fill-opacity="0.7"/>
</svg>