<svg xmlns="http://www.w3.org/2000/svg" width="12" height="10" viewBox="0 0 12 10" fill="none">
    <path d="M0.749992 9.41669C0.597215 9.26391 0.520826 9.06947 0.520826 8.83335C0.520826 8.59724 0.597215 8.4028 0.749992 8.25002L3.97916 5.00002L0.749992 1.75002C0.597215 1.59724 0.517493 1.40613 0.510826 1.17669C0.503604 0.947798 0.583326 0.75002 0.749992 0.583353C0.90277 0.430576 1.09721 0.354187 1.33333 0.354187C1.56944 0.354187 1.76388 0.430576 1.91666 0.583353L5.74999 4.41669C5.83333 4.50002 5.89249 4.5903 5.92749 4.68752C5.96194 4.78474 5.97916 4.88891 5.97916 5.00002C5.97916 5.11113 5.96194 5.2153 5.92749 5.31252C5.89249 5.40974 5.83333 5.50002 5.74999 5.58335L1.91666 9.41669C1.76388 9.56946 1.57277 9.64919 1.34333 9.65585C1.11444 9.66308 0.916659 9.58335 0.749992 9.41669ZM6.24999 9.41669C6.09721 9.26391 6.02083 9.06947 6.02083 8.83335C6.02083 8.59724 6.09721 8.4028 6.24999 8.25002L9.47916 5.00002L6.24999 1.75002C6.09721 1.59724 6.01721 1.40613 6.00999 1.17669C6.00333 0.947798 6.08333 0.75002 6.24999 0.583353C6.40277 0.430576 6.59721 0.354187 6.83333 0.354187C7.06944 0.354187 7.26388 0.430576 7.41666 0.583353L11.25 4.41669C11.3333 4.50002 11.3922 4.5903 11.4267 4.68752C11.4617 4.78474 11.4792 4.88891 11.4792 5.00002C11.4792 5.11113 11.4617 5.2153 11.4267 5.31252C11.3922 5.40974 11.3333 5.50002 11.25 5.58335L7.41666 9.41669C7.26388 9.56946 7.07305 9.64919 6.84416 9.65585C6.61471 9.66308 6.41666 9.58335 6.24999 9.41669Z" fill="white"/>
</svg>