<svg xmlns="http://www.w3.org/2000/svg" width="5" height="8" viewBox="0 0 5 8" fill="none">
    <path d="M4.96649 4.00001C4.96649 4.0889 4.95249 4.17223 4.92449 4.25001C4.89693 4.32779 4.84982 4.40001 4.78315 4.46668L1.69982 7.55001C1.5776 7.67223 1.42471 7.73045 1.24115 7.72468C1.05804 7.71934 0.905377 7.65557 0.783155 7.53334C0.660933 7.41112 0.599821 7.25556 0.599821 7.06668C0.599821 6.87779 0.660933 6.72223 0.783155 6.60001L3.38315 4.00001L0.766488 1.38334C0.644265 1.26112 0.585821 1.10823 0.591155 0.924675C0.596932 0.741564 0.660932 0.588899 0.783155 0.466677C0.905377 0.344454 1.06093 0.283342 1.24982 0.283342C1.43871 0.283342 1.59427 0.344454 1.71649 0.466677L4.78315 3.53334C4.84982 3.60001 4.89693 3.67223 4.92449 3.75001C4.95249 3.82779 4.96649 3.91112 4.96649 4.00001Z" fill="white"/>
</svg>