<svg xmlns="http://www.w3.org/2000/svg" width="12" height="13" viewBox="0 0 12 13" fill="none">
    <path d="M1.33333 12.5C0.966667 12.5 0.652667 12.3696 0.391333 12.1087C0.130444 11.8473 0 11.5333 0 11.1667V1.83333C0 1.46667 0.130444 1.15267 0.391333 0.891333C0.652667 0.630444 0.966667 0.5 1.33333 0.5H10.6667C11.0333 0.5 11.3473 0.630444 11.6087 0.891333C11.8696 1.15267 12 1.46667 12 1.83333V11.1667C12 11.5333 11.8696 11.8473 11.6087 12.1087C11.3473 12.3696 11.0333 12.5 10.6667 12.5H1.33333ZM2.5 4.16667H4.83333C4.97778 4.16667 5.09733 4.11933 5.192 4.02467C5.28622 3.93044 5.33333 3.81111 5.33333 3.66667C5.33333 3.52222 5.28622 3.40289 5.192 3.30867C5.09733 3.214 4.97778 3.16667 4.83333 3.16667H2.5C2.35556 3.16667 2.23622 3.214 2.142 3.30867C2.04733 3.40289 2 3.52222 2 3.66667C2 3.81111 2.04733 3.93044 2.142 4.02467C2.23622 4.11933 2.35556 4.16667 2.5 4.16667ZM1.33333 11.1667H10.6667V1.83333L1.33333 11.1667ZM8.16667 10.5C8.02222 10.5 7.90289 10.4529 7.80867 10.3587C7.714 10.264 7.66667 10.1444 7.66667 10V9.16667H6.83333C6.68889 9.16667 6.56956 9.11933 6.47533 9.02467C6.38067 8.93044 6.33333 8.81111 6.33333 8.66667C6.33333 8.52222 6.38067 8.40267 6.47533 8.308C6.56956 8.21378 6.68889 8.16667 6.83333 8.16667H7.66667V7.33333C7.66667 7.18889 7.714 7.06933 7.80867 6.97467C7.90289 6.88044 8.02222 6.83333 8.16667 6.83333C8.31111 6.83333 8.43067 6.88044 8.52533 6.97467C8.61956 7.06933 8.66667 7.18889 8.66667 7.33333V8.16667H9.5C9.64444 8.16667 9.764 8.21378 9.85867 8.308C9.95289 8.40267 10 8.52222 10 8.66667C10 8.81111 9.95289 8.93044 9.85867 9.02467C9.764 9.11933 9.64444 9.16667 9.5 9.16667H8.66667V10C8.66667 10.1444 8.61956 10.264 8.52533 10.3587C8.43067 10.4529 8.31111 10.5 8.16667 10.5Z" fill="#2B2B2B"/>
</svg>