<svg xmlns="http://www.w3.org/2000/svg" width="16" height="11" viewBox="0 0 16 11" fill="none">
    <path d="M7.99987 8.66666C8.8332 8.66666 9.54165 8.3751 10.1252 7.79199C10.7083 7.20843 10.9999 6.49999 10.9999 5.66666C10.9999 4.83332 10.7083 4.12488 10.1252 3.54132C9.54165 2.95821 8.8332 2.66666 7.99987 2.66666C7.16654 2.66666 6.45809 2.95821 5.87454 3.54132C5.29143 4.12488 4.99987 4.83332 4.99987 5.66666C4.99987 6.49999 5.29143 7.20843 5.87454 7.79199C6.45809 8.3751 7.16654 8.66666 7.99987 8.66666ZM7.99987 7.46666C7.49987 7.46666 7.07498 7.29155 6.7252 6.94132C6.37498 6.59155 6.19987 6.16666 6.19987 5.66666C6.19987 5.16666 6.37498 4.74155 6.7252 4.39132C7.07498 4.04155 7.49987 3.86666 7.99987 3.86666C8.49987 3.86666 8.92498 4.04155 9.2752 4.39132C9.62498 4.74155 9.79987 5.16666 9.79987 5.66666C9.79987 6.16666 9.62498 6.59155 9.2752 6.94132C8.92498 7.29155 8.49987 7.46666 7.99987 7.46666ZM7.99987 10.6667C6.45543 10.6667 5.04431 10.2584 3.76654 9.44199C2.48876 8.6251 1.52209 7.52221 0.866536 6.13332C0.833203 6.07777 0.810981 6.00821 0.79987 5.92466C0.788759 5.84155 0.783203 5.75555 0.783203 5.66666C0.783203 5.57777 0.788759 5.49155 0.79987 5.40799C0.810981 5.32488 0.833203 5.25555 0.866536 5.19999C1.52209 3.8111 2.48876 2.70843 3.76654 1.89199C5.04431 1.0751 6.45543 0.666656 7.99987 0.666656C9.54431 0.666656 10.9554 1.0751 12.2332 1.89199C13.511 2.70843 14.4776 3.8111 15.1332 5.19999C15.1665 5.25555 15.1888 5.32488 15.1999 5.40799C15.211 5.49155 15.2165 5.57777 15.2165 5.66666C15.2165 5.75555 15.211 5.84155 15.1999 5.92466C15.1888 6.00821 15.1665 6.07777 15.1332 6.13332C14.4776 7.52221 13.511 8.6251 12.2332 9.44199C10.9554 10.2584 9.54431 10.6667 7.99987 10.6667Z" fill="#2B2B2B"/>
</svg>