<svg xmlns="http://www.w3.org/2000/svg" width="177" height="33" viewBox="0 0 177 33" fill="none">
    <path fill-rule="evenodd" clip-rule="evenodd" d="M29.3755 6.86749C28.4091 5.54671 27.2521 4.37442 25.9384 3.39935C20.1445 10.952 11.9825 19.939 4.35678 27.4933C4.63375 27.8119 4.91542 28.0806 5.22539 28.3607C12.7844 20.7114 21.4575 12.8759 29.3755 6.86749Z" fill="#FFFFFE"/>
    <path fill-rule="evenodd" clip-rule="evenodd" d="M19.5266 27.1892C20.3649 27.1987 21.2092 27.2886 22.044 27.4642C23.4233 27.7545 25.3593 28.512 26.4625 29.0667C24.9668 29.4493 22.5197 29.9479 20.0679 29.1987C17.9756 28.5179 15.752 28.5281 13.8058 29.2293C13.1568 29.4627 12.5345 29.7554 11.9672 30.116C11.9672 30.116 11.6726 30.18 11.3485 30.2189C11.0829 30.2504 10.8806 30.2602 10.8806 30.2602C13.2212 28.2401 16.3664 27.1543 19.5266 27.1892ZM32.4398 15.1753C32.3062 13.5213 31.9357 11.8957 31.3441 10.4182C24.4055 13.1917 14.1071 20.3221 5.61353 28.6813C8.46606 31.1661 12.1837 32.6818 16.2639 32.6818C21.6048 32.6818 26.1843 30.3065 29.1433 26.3277C23.4033 25.0061 15.5882 24.2597 10.1424 29.3755C10.1424 29.3755 9.78685 29.6819 9.2946 30.1973C9.2946 30.1973 9.13667 30.1761 8.99524 30.1498C8.85224 30.1231 8.72103 30.096 8.72103 30.096C10.7957 27.6968 13.3764 25.971 16.2639 24.8179C20.3606 23.1825 25.4096 22.352 31.2003 22.8132C31.6902 21.666 32.0548 20.4525 32.2705 19.1875C27.3256 19.5108 22.7975 20.4997 18.6858 22.1359C14.4359 23.8272 10.9273 25.802 7.28867 29.6414C7.11738 29.5621 6.92174 29.4764 6.77088 29.4006L8.86206 27.2863C14.8842 21.4024 23.9211 16.9667 32.4398 15.1753Z" fill="#FFFFFE"/>
    <path fill-rule="evenodd" clip-rule="evenodd" d="M17.6145 0.263611C15.8636 8.78154 11.3571 17.7874 5.34482 23.9388L3.33732 25.9871C3.24618 25.8276 3.16172 25.6418 3.0965 25.4819C9.69375 18.8894 12.9175 10.4924 13.5563 0.441182C12.2088 0.678075 11.0817 1.00533 9.88547 1.50936C10.3636 7.337 9.40304 12.2764 7.84654 16.4387C6.73672 19.4068 4.83647 22.0856 2.65729 24.167C2.65729 24.167 2.61132 23.9792 2.5744 23.7777C2.55357 23.663 2.52607 23.4885 2.52607 23.4885C2.88318 23.1098 3.29215 22.6478 3.29215 22.6478C8.29597 17.2885 7.66582 9.32407 6.36665 3.58168C5.26232 4.4059 4.46247 5.2144 3.60015 6.2869C4.14936 7.37393 4.89972 9.27772 5.1869 10.6346C5.36093 11.4569 5.4509 12.2882 5.46032 13.1144C5.49686 16.2183 4.44125 19.4335 2.45732 21.7737C2.45732 21.7737 2.47815 21.4681 2.52057 21.1711C2.55554 20.9271 2.61172 20.6553 2.61172 20.6553C2.9374 20.1131 3.20061 19.5226 3.42179 18.9102C4.114 16.993 4.147 14.643 3.47168 12.5828C2.73075 10.1719 3.21986 7.76522 3.597 6.29082C1.36361 9.07147 0.0220032 12.5989 0.0220032 16.4426C0.0220032 20.5272 1.54236 24.2471 4.03268 27.1009C11.9495 19.0174 19.413 9.22822 22.3748 1.36597C20.9 0.772754 19.2657 0.401111 17.6145 0.263611Z" fill="#FFFFFE"/>
    <path fill-rule="evenodd" clip-rule="evenodd" d="M49.962 24.9304L46.2758 18.7484L42.7299 24.9304H39.93L44.9228 16.4387L40.2569 8.59967H43.1495L46.5327 14.2918L49.8221 8.59967H52.6216L47.8857 16.5782L52.855 24.9304H49.962Z" fill="#FFFFFE"/>
    <path fill-rule="evenodd" clip-rule="evenodd" d="M56.0748 18.9581C56.0748 21.4775 57.2181 23.0175 59.1545 23.0175C60.2977 23.0175 61.3706 22.4809 61.954 21.6409V15.9716C61.184 15.7618 60.2741 15.1321 59.248 15.1321C57.2648 15.1321 56.0748 16.7652 56.0748 18.9581ZM64.2404 13.9889V24.9303H61.954V24.114C61.2075 24.7673 60.1574 25.2104 59.0378 25.2104C55.7016 25.2104 53.6486 22.6443 53.6486 18.9581C53.6486 15.5053 55.8415 12.9391 59.2012 12.9391C60.8575 12.9391 62.3507 13.9889 63.4472 13.9889H64.2404Z" fill="#FFFFFE"/>
    <path fill-rule="evenodd" clip-rule="evenodd" d="M69.0934 16.9518V21.0575C69.6064 22.2239 70.7964 23.1106 72.0795 23.1106C73.4325 23.1106 74.5293 22.2475 75.066 21.1042L77.0955 22.2475C76.2092 24.0676 74.4358 25.3035 72.0327 25.3035C69.8166 25.3035 67.8802 23.9269 66.8069 21.571V16.4387C67.8802 14.2218 69.8166 12.892 72.0327 12.892C74.4358 12.892 76.2092 14.0356 77.0955 15.8549L75.066 16.9985C74.5293 15.8549 73.4325 14.9922 72.0795 14.9922C70.7964 14.9922 69.6064 15.8317 69.0934 16.9518Z" fill="#FFFFFE"/>
    <path fill-rule="evenodd" clip-rule="evenodd" d="M84.2349 15.0853C82.135 15.0853 80.8751 16.5781 80.8751 18.9581C80.8751 21.501 82.135 23.1106 84.2349 23.1106C86.3347 23.1106 87.5942 21.501 87.5942 18.9581C87.5942 16.5781 86.3347 15.0853 84.2349 15.0853ZM90.0209 18.9581C90.0209 22.7138 87.7344 25.3035 84.2349 25.3035C80.7353 25.3035 78.4489 22.7138 78.4489 18.9581C78.4489 15.3654 80.7353 12.892 84.2349 12.892C87.7344 12.892 90.0209 15.3654 90.0209 18.9581Z" fill="#FFFFFE"/>
    <path fill-rule="evenodd" clip-rule="evenodd" d="M97.3704 15.1321C96.3902 15.1321 95.504 16.0416 94.5474 16.4615V21.8507C95.2003 22.4809 96.2272 23.0175 97.3932 23.0175C99.1897 23.0175 100.426 21.4775 100.426 18.9581C100.426 16.6721 99.167 15.1321 97.3704 15.1321ZM97.5103 12.9392C100.753 12.9392 102.853 15.4354 102.853 18.9581C102.853 22.6443 100.823 25.2105 97.5339 25.2105C96.3902 25.2105 95.317 24.8604 94.5474 24.2774V24.9304H92.2609V8.59967H94.5474V14.1287C95.4105 13.6856 96.3435 12.9392 97.5103 12.9392Z" fill="#FFFFFE"/>
    <path fill-rule="evenodd" clip-rule="evenodd" d="M112.908 17.7449C112.862 16.3452 111.858 15.0381 110.202 15.0381C108.452 15.0381 107.333 16.3452 107.192 17.7449H112.908ZM104.766 18.9581C104.766 15.3654 106.865 12.892 110.202 12.892C113.468 12.892 115.428 15.3654 115.428 19.0979V19.6114H107.146C107.286 21.571 108.546 23.1106 110.365 23.1106C111.508 23.1106 112.512 22.5507 113.118 21.6645L115.124 22.8073C114.168 24.3705 112.325 25.3035 110.319 25.3035C106.913 25.3035 104.766 22.6442 104.766 18.9581Z" fill="#FFFFFE"/>
    <path fill-rule="evenodd" clip-rule="evenodd" d="M123.127 15.0853C121.027 15.0853 119.767 16.5781 119.767 18.9581C119.767 21.501 121.027 23.1106 123.127 23.1106C125.227 23.1106 126.486 21.501 126.486 18.9581C126.486 16.5781 125.227 15.0853 123.127 15.0853ZM128.913 18.9581C128.913 22.7138 126.627 25.3035 123.127 25.3035C119.628 25.3035 117.341 22.7138 117.341 18.9581C117.341 15.3654 119.628 12.892 123.127 12.892C126.627 12.892 128.913 15.3654 128.913 18.9581Z" fill="#FFFFFE"/>
    <path fill-rule="evenodd" clip-rule="evenodd" d="M136.876 22.7374H143.269V24.9304H134.45V23.764C134.45 20.7779 136.013 19.0516 138.206 17.5116C139.559 16.5554 140.656 15.6452 140.656 14.5723C140.656 13.5222 139.863 12.7286 138.696 12.7286C137.693 12.7286 136.83 13.5689 136.246 14.6422L134.286 13.5454C135.173 11.8191 136.713 10.5828 138.789 10.5828C141.239 10.5828 143.036 12.2859 143.036 14.5255C143.036 16.788 141.472 17.932 139.816 19.0748C138.183 20.1717 136.923 21.2678 136.876 22.7374Z" fill="#FFFFFE"/>
    <path fill-rule="evenodd" clip-rule="evenodd" d="M160.014 22.7374H166.406V24.9304H157.588V23.764C157.588 20.7779 159.151 19.0516 161.344 17.5116C162.697 16.5554 163.794 15.6452 163.794 14.5723C163.794 13.5222 163 12.7286 161.834 12.7286C160.831 12.7286 159.967 13.5689 159.384 14.6422L157.425 13.5454C158.311 11.8191 159.851 10.5828 161.927 10.5828C164.377 10.5828 166.173 12.2859 166.173 14.5255C166.173 16.788 164.61 17.932 162.954 19.0748C161.321 20.1717 160.061 21.2678 160.014 22.7374Z" fill="#FFFFFE"/>
    <path fill-rule="evenodd" clip-rule="evenodd" d="M170.515 22.7374H176.908V24.9304H168.089V23.764C168.089 20.7779 169.652 19.0516 171.845 17.5116C173.198 16.5554 174.295 15.6452 174.295 14.5723C174.295 13.5222 173.502 12.7286 172.335 12.7286C171.332 12.7286 170.469 13.5689 169.886 14.6422L167.926 13.5454C168.812 11.8191 170.352 10.5828 172.428 10.5828C174.878 10.5828 176.675 12.2859 176.675 14.5255C176.675 16.788 175.111 17.932 173.455 19.0748C171.822 20.1717 170.562 21.2678 170.515 22.7374Z" fill="#FFFFFE"/>
    <path fill-rule="evenodd" clip-rule="evenodd" d="M149.775 10.8861V24.9304H147.49V13.7555L145.693 14.9923L144.526 13.3124L148.049 10.8861H149.775Z" fill="#FFFFFE"/>
    <path fill-rule="evenodd" clip-rule="evenodd" d="M155.513 17.8126C155.513 18.6623 154.824 19.351 153.974 19.351C153.125 19.351 152.436 18.6623 152.436 17.8126C152.436 16.9632 153.125 16.2745 153.974 16.2745C154.824 16.2745 155.513 16.9632 155.513 17.8126Z" fill="#FFFFFE"/>
</svg>