<svg xmlns="http://www.w3.org/2000/svg" width="114" height="48" viewBox="0 0 114 48" fill="none">
    <path d="M1.12406 19.3911H3.65334V12.1405H6.54795C10.651 12.1405 13.2927 9.89227 13.2927 5.98595C13.2927 2.22014 10.7072 0 6.49174 0H1.12406V19.3911ZM3.65334 9.83607V2.30445H6.37933C9.02102 2.30445 10.651 3.7096 10.651 5.98595C10.651 8.34661 9.07722 9.83607 6.43554 9.83607H3.65334Z" fill="white"/>
    <path d="M16.9595 19.3911H29.2686L28.4817 17.0304H19.4887V0H16.9595V19.3911Z" fill="white"/>
    <path d="M30.6028 19.3911H33.2726L35.1836 14.6417H43.8675L45.7504 19.3911H48.5326L40.3827 0H38.7527L30.6028 19.3911ZM36.111 12.3372L39.5396 3.82202L42.9401 12.3372H36.111Z" fill="white"/>
    <path d="M51.5119 19.3911H54.0412V4.5808L64.6642 19.3911H66.0974V0H63.5681V13.8267L53.6478 0H51.5119V19.3911Z" fill="white"/>
    <path d="M8.54327 47.9438C10.8196 47.9438 13.2365 47.1007 15.007 45.7799V42.829C12.8711 44.4309 10.5105 45.5269 8.54327 45.5269C5.05849 45.5269 2.69783 42.548 2.69783 37.6581C2.69783 32.9368 5.1709 30.0703 8.54327 30.0703C10.5105 30.0703 12.8711 31.1663 15.007 32.7682V29.8173C13.2365 28.4965 10.8196 27.6534 8.54327 27.6534C3.288 27.6534 -6.10352e-05 31.644 -6.10352e-05 37.6581C-6.10352e-05 43.8407 3.17558 47.9438 8.54327 47.9438Z" fill="white"/>
    <path d="M17.0728 47.4941H19.7425L21.6536 42.7447H30.3374L32.2203 47.4941H35.0025L26.8526 28.103H25.2226L17.0728 47.4941ZM22.581 40.4403L26.0095 31.9251L29.41 40.4403H22.581Z" fill="white"/>
    <path d="M37.9819 47.4941H40.3987V33.4707L46.9186 46.8197H47.7617L54.2816 33.4426V47.4941H56.6985V28.103H54.4502L47.3683 42.548L40.2863 28.103H37.9819V47.4941Z" fill="white"/>
    <path d="M69.5025 48C74.8983 48 78.2988 44.3747 78.2988 39.2318C78.2988 38.5855 78.2426 37.9953 78.1301 37.4614H69.4463L70.2051 39.822H75.629C75.3198 43.4473 72.8749 45.5831 69.5025 45.5831C65.8772 45.5831 63.4322 42.5761 63.4322 37.7143C63.4322 33.1335 66.2426 30.0703 70.2613 30.0703C71.9475 30.0703 74.533 31.0539 76.9217 32.5433V29.6206C75.0107 28.4965 72.4252 27.6534 70.2613 27.6534C64.5002 27.6534 60.7344 31.6721 60.7344 37.7143C60.7344 44.0375 64.1067 48 69.5025 48Z" fill="white"/>
    <path d="M80.0851 47.4941H82.7548L84.6659 42.7447H93.3497L95.2326 47.4941H98.0148L89.8649 28.103H88.2349L80.0851 47.4941ZM85.5933 40.4403L89.0218 31.9251L92.4223 40.4403H85.5933Z" fill="white"/>
    <path d="M100.994 47.4941H113.303L112.516 45.1335H103.523V28.103H100.994V47.4941Z" fill="white"/>
</svg>